<?xml version="1.0" encoding="utf-8"?>
<!-- Generator: Adobe Illustrator 16.0.0, SVG Export Plug-In . SVG Version: 6.00 Build 0)  -->
<!DOCTYPE svg PUBLIC "-//W3C//DTD SVG 1.1//EN" "http://www.w3.org/Graphics/SVG/1.1/DTD/svg11.dtd">
<svg version="1.1" id="Layer_1" xmlns="http://www.w3.org/2000/svg" xmlns:xlink="http://www.w3.org/1999/xlink" x="0px" y="0px"
	 width="270px" height="52.303px" viewBox="17.5 3.39 270 52.303" enable-background="new 17.5 3.39 270 52.303"
	 xml:space="preserve">
<g>
	<g>
		<g>
			<path fill="#231F20" d="M85.725,27.745H70.284c0,1.501,0.381,2.648,1.148,3.426c0.765,0.781,1.914,1.169,3.446,1.169
				c0.78,0,1.455-0.138,2.041-0.422c0.572-0.282,1.062-0.771,1.47-1.472h7.055c-0.301,1.21-0.788,2.264-1.472,3.166
				c-0.688,0.9-1.508,1.639-2.46,2.216c-0.955,0.579-1.999,1.01-3.123,1.29c-1.131,0.28-2.287,0.424-3.469,0.424
				c-1.721,0-3.313-0.242-4.78-0.723c-1.464-0.484-2.726-1.188-3.789-2.121c-1.062-0.929-1.895-2.075-2.499-3.446
				c-0.607-1.372-0.909-2.945-0.909-4.718c0-1.722,0.284-3.267,0.846-4.635c0.567-1.373,1.355-2.526,2.363-3.467
				c1.001-0.945,2.208-1.67,3.607-2.177c1.396-0.511,2.941-0.769,4.635-0.769c1.802,0,3.398,0.269,4.796,0.808
				c1.398,0.537,2.585,1.302,3.552,2.296c0.966,0.998,1.704,2.198,2.217,3.608c0.507,1.411,0.765,3.006,0.765,4.777L85.725,27.745
				L85.725,27.745z M78.91,23.512c-0.189-0.995-0.677-1.79-1.47-2.379c-0.792-0.593-1.687-0.89-2.685-0.89
				c-1.073,0-2.013,0.281-2.818,0.83c-0.81,0.55-1.317,1.367-1.533,2.439H78.91z"/>
			<polygon fill="#231F20" points="87.981,16.172 97.296,16.172 101.005,20.446 104.715,16.172 114.188,16.172 105.641,25.649 
				115.964,36.857 106.326,36.857 101.005,30.728 95.683,36.857 86.047,36.857 96.371,25.649 			"/>
			<path fill="#231F20" d="M124.871,18.513h0.085c0.67-1.025,1.577-1.783,2.72-2.28c1.143-0.498,2.316-0.746,3.524-0.746
				c1.535,0,2.945,0.304,4.238,0.907c1.292,0.604,2.39,1.413,3.309,2.42c0.908,1.007,1.623,2.184,2.136,3.528
				c0.507,1.343,0.765,2.753,0.765,4.234c0,1.507-0.258,2.916-0.765,4.232c-0.513,1.315-1.217,2.478-2.119,3.489
				c-0.9,1.006-1.989,1.8-3.268,2.375c-1.275,0.577-2.677,0.869-4.213,0.869c-1.207,0-2.385-0.215-3.531-0.646
				c-1.138-0.427-2.102-1.102-2.88-2.013v12.293h-7.336V16.172h7.336V18.513z M129.348,21.859c-0.754,0-1.42,0.127-1.999,0.382
				c-0.575,0.257-1.069,0.59-1.471,1.008c-0.4,0.416-0.711,0.904-0.922,1.471c-0.222,0.567-0.325,1.17-0.325,1.814
				c0,1.316,0.408,2.419,1.227,3.305c0.823,0.888,1.986,1.332,3.491,1.332c1.501,0,2.67-0.443,3.488-1.332
				c0.819-0.885,1.23-1.988,1.23-3.305c0-0.645-0.111-1.247-0.326-1.814c-0.215-0.567-0.522-1.056-0.924-1.471
				c-0.405-0.417-0.897-0.751-1.473-1.008C130.764,21.985,130.098,21.859,129.348,21.859z"/>
			<path fill="#231F20" d="M156.2,15.487c1.661,0,3.249,0.244,4.754,0.726c1.509,0.483,2.831,1.196,3.972,2.137
				c1.143,0.943,2.049,2.097,2.725,3.467c0.67,1.372,1.007,2.945,1.007,4.719c0,1.745-0.337,3.305-1.007,4.68
				c-0.676,1.367-1.582,2.524-2.725,3.465c-1.141,0.939-2.463,1.655-3.972,2.139c-1.505,0.482-3.093,0.724-4.754,0.724
				c-1.671,0-3.247-0.241-4.739-0.724c-1.488-0.483-2.817-1.199-3.97-2.139c-1.156-0.94-2.069-2.091-2.741-3.448
				c-0.672-1.361-1.01-2.924-1.01-4.697c0-1.774,0.337-3.348,1.01-4.719c0.672-1.369,1.577-2.524,2.721-3.467
				c1.141-0.941,2.465-1.653,3.966-2.137C152.95,15.73,154.529,15.487,156.2,15.487z M156.2,21.859
				c-0.757,0-1.421,0.127-1.999,0.382c-0.577,0.257-1.066,0.59-1.473,1.008c-0.4,0.416-0.708,0.904-0.925,1.471
				c-0.22,0.567-0.323,1.17-0.323,1.814c0,1.316,0.409,2.419,1.23,3.305c0.818,0.888,1.984,1.332,3.49,1.332
				c1.504,0,2.666-0.443,3.487-1.332c0.821-0.885,1.229-1.988,1.229-3.305c0-0.645-0.111-1.247-0.325-1.814
				c-0.216-0.567-0.525-1.056-0.928-1.471c-0.4-0.417-0.891-0.751-1.469-1.008C157.619,21.985,156.952,21.859,156.2,21.859z"/>
			<polygon fill="#807A51" points="179.985,36.857 172.653,36.857 172.653,22.218 170.267,22.218 170.267,16.172 172.653,16.172 
				172.653,9.964 179.985,9.964 179.985,16.172 184.142,16.172 184.142,22.218 179.985,22.218 			"/>
			<path fill="#807A51" d="M193.815,19.559h0.082c0.695-1.286,1.625-2.222,2.778-2.8c1.158-0.577,2.459-0.865,3.911-0.865h1.41
				v7.052c-0.505-0.291-1.01-0.483-1.506-0.56c-0.501-0.084-1.028-0.123-1.596-0.123c-1.023,0-1.863,0.162-2.522,0.48
				c-0.657,0.322-1.172,0.764-1.549,1.313c-0.379,0.55-0.64,1.209-0.788,1.975c-0.146,0.767-0.221,1.591-0.221,2.479v8.348h-7.339
				V16.172h7.339V19.559L193.815,19.559z"/>
			<path fill="#807A51" d="M227.36,36.857h-7.338v-2.299h-0.083c-0.643,1.021-1.546,1.776-2.698,2.261
				c-1.159,0.48-2.34,0.723-3.548,0.723c-1.533,0-2.938-0.297-4.216-0.891c-1.277-0.59-2.383-1.388-3.307-2.396
				c-0.926-1.005-1.641-2.187-2.155-3.528c-0.516-1.343-0.769-2.754-0.769-4.233c0-1.478,0.253-2.883,0.769-4.214
				c0.513-1.327,1.212-2.5,2.114-3.507c0.902-1.004,1.986-1.81,3.266-2.4c1.28-0.59,2.682-0.886,4.216-0.886
				c1.21,0,2.386,0.222,3.523,0.664c1.145,0.443,2.104,1.125,2.886,2.04v-2.018h7.34V36.857L227.36,36.857z M215.546,21.859
				c-0.756,0-1.418,0.127-1.996,0.382c-0.578,0.257-1.067,0.59-1.472,1.008c-0.403,0.416-0.71,0.904-0.929,1.471
				c-0.215,0.567-0.322,1.17-0.322,1.814c0,1.316,0.412,2.419,1.231,3.305c0.818,0.888,1.978,1.332,3.487,1.332
				c1.504,0,2.67-0.443,3.488-1.332c0.815-0.885,1.23-1.988,1.23-3.305c0-0.645-0.111-1.247-0.325-1.814
				c-0.215-0.567-0.526-1.056-0.922-1.471c-0.406-0.417-0.897-0.751-1.479-1.008C216.966,21.985,216.295,21.859,215.546,21.859z"/>
			<path fill="#807A51" d="M247.803,34.559h-0.086c-0.646,1.021-1.54,1.776-2.7,2.261c-1.157,0.48-2.337,0.723-3.546,0.723
				c-1.532,0-2.937-0.297-4.215-0.891c-1.275-0.59-2.378-1.388-3.303-2.396c-0.927-1.005-1.646-2.187-2.155-3.528
				c-0.514-1.343-0.768-2.754-0.768-4.233c0-1.478,0.254-2.883,0.768-4.214c0.507-1.327,1.209-2.5,2.112-3.507
				c0.905-1.004,1.988-1.81,3.268-2.4c1.275-0.59,2.676-0.886,4.211-0.886c1.209,0,2.385,0.222,3.529,0.664
				c1.145,0.443,2.103,1.125,2.884,2.04V3.39h7.336v33.467h-7.336L247.803,34.559L247.803,34.559z M243.324,21.859
				c-0.751,0-1.42,0.127-1.992,0.382c-0.584,0.257-1.07,0.59-1.477,1.008c-0.401,0.416-0.708,0.904-0.922,1.471
				c-0.218,0.567-0.323,1.17-0.323,1.814c0,1.316,0.408,2.419,1.232,3.305c0.815,0.888,1.977,1.332,3.482,1.332
				c1.505,0,2.668-0.443,3.487-1.332c0.818-0.885,1.229-1.988,1.229-3.305c0-0.645-0.105-1.247-0.325-1.814
				c-0.212-0.567-0.517-1.056-0.923-1.471c-0.401-0.417-0.896-0.751-1.474-1.008C244.741,21.985,244.079,21.859,243.324,21.859z"/>
			<path fill="#807A51" d="M280.979,27.745h-15.44c0,1.501,0.387,2.648,1.152,3.426c0.765,0.781,1.916,1.169,3.452,1.169
				c0.776,0,1.451-0.138,2.027-0.422c0.58-0.282,1.07-0.771,1.476-1.472h7.058c-0.3,1.21-0.791,2.264-1.472,3.166
				c-0.689,0.9-1.51,1.639-2.459,2.216c-0.957,0.579-1.995,1.01-3.126,1.29c-1.127,0.28-2.285,0.424-3.466,0.424
				c-1.721,0-3.32-0.242-4.779-0.723c-1.466-0.484-2.729-1.188-3.788-2.121c-1.062-0.929-1.896-2.075-2.499-3.446
				c-0.609-1.372-0.908-2.945-0.908-4.718c0-1.722,0.281-3.267,0.845-4.635c0.563-1.373,1.352-2.526,2.36-3.467
				c1.007-0.945,2.204-1.67,3.606-2.177c1.398-0.511,2.946-0.769,4.641-0.769c1.797,0,3.397,0.269,4.794,0.808
				c1.399,0.537,2.58,1.302,3.552,2.296c0.967,0.998,1.705,2.198,2.217,3.608c0.508,1.411,0.76,3.006,0.76,4.777v0.77H280.979z
				 M274.169,23.512c-0.187-0.995-0.679-1.79-1.473-2.379c-0.791-0.593-1.683-0.89-2.677-0.89c-1.078,0-2.016,0.281-2.825,0.83
				c-0.806,0.55-1.313,1.367-1.532,2.439H274.169z"/>
			<path fill="#918560" d="M27.78,25.178c0.599,0.597,0.599,1.576,0,2.177l-3.824,3.823c-0.598,0.605-1.584,0.605-2.182,0
				l-3.825-3.823c-0.598-0.601-0.598-1.58,0-2.177l3.825-3.821c0.598-0.6,1.584-0.6,2.182,0L27.78,25.178z"/>
			<path fill="#80727B" d="M34.886,17.941c0.602,0.597,0.602,1.577,0,2.177L31.07,23.94c-0.601,0.598-1.581,0.598-2.182,0
				l-3.825-3.822c-0.598-0.6-0.598-1.58,0-2.177l3.825-3.819c0.601-0.601,1.582-0.601,2.182,0L34.886,17.941z"/>
			<path fill="#DBB47B" d="M42.287,10.315c0.601,0.6,0.601,1.581,0,2.181l-3.821,3.817c-0.601,0.601-1.581,0.601-2.184,0
				l-3.823-3.817c-0.6-0.6-0.6-1.581,0-2.181l3.83-3.824c0.596-0.602,1.577-0.602,2.177,0L42.287,10.315z"/>
			<path fill="#A64233" d="M42.287,25.185c0.601,0.597,0.601,1.576,0,2.177l-3.821,3.816c-0.601,0.602-1.581,0.602-2.184,0
				l-3.823-3.816c-0.6-0.601-0.6-1.58,0-2.177l3.83-3.826c0.596-0.597,1.577-0.597,2.177,0L42.287,25.185z"/>
			<path fill="#807A51" d="M49.758,32.516c0.596,0.6,0.596,1.579,0,2.177l-3.826,3.82c-0.599,0.601-1.579,0.601-2.181,0l-3.819-3.82
				c-0.603-0.598-0.603-1.577-0.007-2.177l3.832-3.825c0.597-0.604,1.576-0.604,2.175,0L49.758,32.516z"/>
			<path fill="#E6E7E8" d="M34.888,32.514c0.6,0.602,0.6,1.581,0,2.179l-3.823,3.818c-0.598,0.598-1.578,0.598-2.182,0l-3.82-3.818
				c-0.603-0.598-0.603-1.577,0-2.179l3.825-3.823c0.599-0.599,1.578-0.599,2.176,0L34.888,32.514z"/>
			<path fill="#E6E7E8" d="M42.287,39.868c0.601,0.601,0.601,1.579,0,2.179l-3.821,3.818c-0.601,0.595-1.581,0.595-2.184,0
				l-3.823-3.818c-0.6-0.6-0.6-1.578,0-2.179l3.83-3.825c0.596-0.599,1.577-0.599,2.177,0L42.287,39.868z"/>
			<path fill="#E6E7E8" d="M49.758,17.943c0.596,0.597,0.596,1.58,0,2.179l-3.826,3.818c-0.599,0.598-1.585,0.598-2.181,0
				l-3.819-3.818c-0.603-0.6-0.603-1.583-0.007-2.179l3.826-3.822c0.603-0.601,1.582-0.601,2.181,0L49.758,17.943z"/>
			<path fill="#E6E7E8" d="M57.23,25.185c0.603,0.597,0.599,1.576,0,2.177l-3.821,3.816c-0.604,0.602-1.582,0.602-2.18,0
				l-3.822-3.816c-0.601-0.601-0.601-1.58,0-2.177l3.822-3.826c0.598-0.597,1.577-0.597,2.177,0L57.23,25.185z"/>
		</g>
		<g>
			<path fill="#6D6E70" d="M135.165,50.774h0.981l0.006,0.24c0,0.683-0.206,1.158-0.623,1.433c-0.415,0.277-1.144,0.411-2.185,0.411
				c-1.209,0-2.005-0.221-2.383-0.666c-0.379-0.442-0.569-1.372-0.569-2.788c0-1.311,0.192-2.192,0.572-2.644
				c0.382-0.447,1.126-0.674,2.237-0.674c1.21,0,2.004,0.197,2.378,0.584c0.379,0.39,0.566,1.211,0.566,2.465v0.517h-4.734
				c0,1.035,0.112,1.699,0.333,1.981c0.225,0.285,0.741,0.429,1.558,0.429c0.778,0,1.28-0.071,1.51-0.206
				c0.235-0.133,0.351-0.424,0.351-0.877L135.165,50.774L135.165,50.774z M135.165,48.905l-0.009-0.313
				c0-0.711-0.117-1.174-0.35-1.386c-0.234-0.216-0.739-0.319-1.514-0.319c-0.78,0-1.286,0.123-1.515,0.372
				c-0.235,0.252-0.351,0.802-0.351,1.646H135.165z"/>
			<path fill="#6D6E70" d="M138.159,46.184h0.966l-0.023,0.99l0.023,0.021c0.371-0.738,1.088-1.108,2.147-1.108
				c1.115,0,1.791,0.37,2.029,1.108h0.028c0.411-0.738,1.167-1.108,2.262-1.108c1.551,0,2.327,0.792,2.327,2.374v4.3h-0.962v-4.387
				c0-0.581-0.106-0.975-0.308-1.179c-0.208-0.208-0.597-0.311-1.173-0.311c-0.761,0-1.275,0.143-1.546,0.429
				c-0.275,0.288-0.408,0.832-0.408,1.642v3.806h-0.964V48.46l-0.013-0.302c0-0.848-0.483-1.273-1.452-1.273
				c-1.313,0-1.969,0.715-1.969,2.137v3.739h-0.964V46.184z"/>
			<path fill="#6D6E70" d="M150.292,46.184h0.961l-0.047,0.835l0.024,0.018c0.337-0.635,1.06-0.949,2.162-0.949
				c0.975,0,1.649,0.247,2.017,0.743c0.366,0.494,0.552,1.412,0.552,2.739c0,1.235-0.187,2.094-0.56,2.57
				c-0.372,0.479-1.034,0.72-1.979,0.72c-1.083,0-1.798-0.291-2.147-0.873h-0.022v3.597h-0.961L150.292,46.184L150.292,46.184z
				 M153.127,46.886c-0.771,0-1.274,0.164-1.509,0.496c-0.235,0.334-0.351,1.051-0.351,2.145c0,1.02,0.127,1.688,0.379,2.031
				c0.251,0.333,0.761,0.505,1.52,0.505c0.727,0,1.203-0.165,1.434-0.492c0.234-0.324,0.351-0.997,0.351-2.017
				c0-1.119-0.111-1.842-0.338-2.174C154.386,47.05,153.893,46.886,153.127,46.886z"/>
			<path fill="#6D6E70" d="M160.693,46.087c1.217,0,2.002,0.211,2.367,0.635c0.361,0.422,0.543,1.339,0.543,2.749
				c0,1.416-0.182,2.332-0.543,2.756c-0.365,0.424-1.15,0.632-2.367,0.632c-1.21,0-1.997-0.208-2.359-0.632
				c-0.365-0.424-0.543-1.342-0.543-2.756c0-1.411,0.178-2.328,0.543-2.749C158.696,46.298,159.483,46.087,160.693,46.087z
				 M160.693,46.886c-0.854,0-1.381,0.14-1.587,0.416c-0.202,0.277-0.307,1.002-0.307,2.169c0,1.17,0.103,1.896,0.307,2.172
				c0.206,0.277,0.733,0.42,1.587,0.42c0.857,0,1.389-0.141,1.595-0.42c0.202-0.275,0.304-1.002,0.304-2.172
				c0-1.167-0.102-1.893-0.304-2.169C162.083,47.025,161.551,46.886,160.693,46.886z"/>
			<path fill="#6D6E70" d="M174.157,46.184l-1.846,6.579h-1.429l-0.882-3.655l-0.268-1.11l-0.124-0.562l-0.133-0.557h-0.021
				l-0.127,0.557l-0.132,0.562l-0.269,1.11l-0.887,3.655h-1.459l-1.783-6.579h1.009l0.93,3.638l0.288,1.145l0.141,0.568l0.137,0.574
				h0.026l0.131-0.574l0.137-0.568l0.276-1.135l0.902-3.647h1.4l0.896,3.654l0.276,1.133l0.13,0.563l0.132,0.574h0.019l0.144-0.574
				l0.142-0.568l0.288-1.145l0.922-3.638H174.157z"/>
			<path fill="#6D6E70" d="M180.112,50.774h0.988l0.002,0.24c0,0.683-0.206,1.158-0.62,1.433c-0.417,0.277-1.146,0.411-2.183,0.411
				c-1.214,0-2.007-0.221-2.384-0.666c-0.381-0.442-0.569-1.372-0.569-2.788c0-1.311,0.19-2.192,0.571-2.644
				c0.38-0.447,1.125-0.674,2.236-0.674c1.211,0,2.005,0.197,2.38,0.584c0.374,0.39,0.566,1.211,0.566,2.465v0.517h-4.734
				c0,1.035,0.108,1.699,0.33,1.981c0.223,0.285,0.743,0.429,1.559,0.429c0.776,0,1.28-0.071,1.511-0.206
				c0.234-0.133,0.347-0.424,0.347-0.877V50.774z M180.112,48.905l-0.004-0.313c0-0.711-0.117-1.174-0.352-1.386
				c-0.236-0.216-0.737-0.319-1.513-0.319c-0.782,0-1.288,0.123-1.519,0.372c-0.23,0.252-0.347,0.802-0.347,1.646H180.112z"/>
			<path fill="#6D6E70" d="M183.209,46.184h0.964l-0.094,0.757l0.019,0.02c0.379-0.619,1.009-0.93,1.885-0.93
				c1.212,0,1.815,0.624,1.815,1.871l-0.006,0.455h-0.948l0.02-0.166c0.011-0.173,0.021-0.289,0.021-0.35
				c0-0.675-0.369-1.013-1.102-1.013c-1.073,0-1.608,0.664-1.608,1.99v3.942h-0.966V46.184L183.209,46.184z"/>
			<path fill="#6D6E70" d="M190.185,43.368v1.081h-0.963v-1.081H190.185z M190.185,46.184v6.579h-0.963v-6.579H190.185z"/>
			<path fill="#6D6E70" d="M192.364,46.184h0.929l-0.027,0.894l0.027,0.023c0.293-0.679,1.02-1.014,2.189-1.014
				c0.939,0,1.576,0.165,1.907,0.493c0.331,0.332,0.498,0.966,0.498,1.903v4.277h-0.963v-4.195v-0.247
				c0-0.566-0.107-0.945-0.323-1.143c-0.216-0.193-0.63-0.29-1.244-0.29c-1.356,0-2.031,0.64-2.031,1.919v3.958h-0.962V46.184
				L192.364,46.184z"/>
			<path fill="#6D6E70" d="M205.627,46.184v7.006c0,0.951-0.206,1.609-0.619,1.966c-0.413,0.359-1.167,0.538-2.271,0.538
				c-0.98,0-1.651-0.151-2.01-0.451c-0.357-0.307-0.534-0.872-0.534-1.705h0.93c0,0.564,0.103,0.936,0.312,1.104
				c0.209,0.171,0.666,0.253,1.376,0.253c0.733,0,1.226-0.111,1.478-0.331c0.252-0.223,0.38-0.653,0.38-1.293v-1.32l-0.019-0.008
				c-0.251,0.61-0.967,0.915-2.151,0.915c-0.973,0-1.641-0.24-2.005-0.72c-0.371-0.477-0.554-1.354-0.554-2.622
				c0-1.317,0.185-2.221,0.56-2.707c0.374-0.481,1.067-0.724,2.082-0.724c1.077,0,1.783,0.33,2.113,0.99l0.019-0.005l-0.045-0.889
				h0.96V46.184z M202.757,46.886c-0.756,0-1.245,0.16-1.472,0.479c-0.227,0.32-0.335,1.017-0.335,2.096
				c0,1.088,0.108,1.791,0.335,2.116c0.227,0.321,0.716,0.486,1.472,0.486c0.768,0,1.272-0.181,1.515-0.534
				c0.243-0.354,0.362-1.093,0.362-2.22c0-0.99-0.119-1.644-0.362-1.955C204.028,47.041,203.524,46.886,202.757,46.886z"/>
			<path fill="#6D6E70" d="M212.784,43.368v5.459h0.443l2.327-2.643h1.208l-2.813,3.021l3.322,3.558h-1.3l-2.794-3.186h-0.395v3.186
				h-0.961v-9.395H212.784z"/>
			<path fill="#6D6E70" d="M218.38,46.184h0.93l-0.027,0.894l0.027,0.023c0.293-0.679,1.02-1.014,2.188-1.014
				c0.938,0,1.577,0.165,1.909,0.493c0.33,0.332,0.497,0.966,0.497,1.903v4.277h-0.964v-4.195v-0.247
				c0-0.566-0.105-0.945-0.322-1.143c-0.214-0.193-0.629-0.29-1.244-0.29c-1.356,0-2.031,0.64-2.031,1.919v3.958h-0.961
				L218.38,46.184L218.38,46.184z"/>
			<path fill="#6D6E70" d="M228.856,46.087c1.214,0,2.007,0.211,2.368,0.635c0.361,0.422,0.543,1.339,0.543,2.749
				c0,1.416-0.182,2.332-0.543,2.756s-1.154,0.632-2.368,0.632c-1.211,0-1.999-0.208-2.361-0.632
				c-0.361-0.424-0.542-1.342-0.542-2.756c0-1.411,0.181-2.328,0.542-2.749C226.858,46.298,227.646,46.087,228.856,46.087z
				 M228.856,46.886c-0.855,0-1.384,0.14-1.587,0.416c-0.203,0.277-0.306,1.002-0.306,2.169c0,1.17,0.103,1.896,0.306,2.172
				c0.203,0.277,0.731,0.42,1.587,0.42c0.856,0,1.39-0.141,1.595-0.42c0.202-0.275,0.303-1.002,0.303-2.172
				c0-1.167-0.101-1.893-0.303-2.169C230.247,47.025,229.713,46.886,228.856,46.886z"/>
			<path fill="#6D6E70" d="M242.322,46.184l-1.847,6.579h-1.43l-0.882-3.655l-0.267-1.11l-0.125-0.562l-0.13-0.557h-0.022
				l-0.13,0.557l-0.13,0.562l-0.268,1.11l-0.889,3.655h-1.46l-1.778-6.579h1.01l0.927,3.638l0.291,1.145l0.138,0.568l0.136,0.574
				h0.028l0.13-0.574l0.14-0.568l0.275-1.135l0.9-3.647h1.402l0.897,3.654l0.276,1.133l0.128,0.563l0.132,0.574h0.019l0.146-0.574
				l0.138-0.568l0.289-1.145l0.923-3.638H242.322z"/>
			<path fill="#6D6E70" d="M244.665,43.368v9.395h-0.964v-9.395H244.665z"/>
			<path fill="#6D6E70" d="M251.427,50.774h0.986l0.004,0.24c0,0.683-0.206,1.158-0.621,1.433c-0.415,0.277-1.145,0.411-2.184,0.411
				c-1.214,0-2.008-0.221-2.386-0.666c-0.379-0.442-0.566-1.372-0.566-2.788c0-1.311,0.188-2.192,0.569-2.644
				c0.381-0.447,1.124-0.674,2.237-0.674c1.211,0,2.006,0.197,2.381,0.584c0.372,0.39,0.565,1.211,0.565,2.465v0.517h-4.735
				c0,1.035,0.11,1.699,0.33,1.981c0.227,0.285,0.743,0.429,1.562,0.429c0.774,0,1.281-0.071,1.509-0.206
				c0.231-0.133,0.349-0.424,0.349-0.877V50.774z M251.427,48.905l-0.009-0.313c0-0.711-0.116-1.174-0.35-1.386
				c-0.233-0.216-0.738-0.319-1.514-0.319c-0.779,0-1.284,0.123-1.517,0.372c-0.231,0.252-0.349,0.802-0.349,1.646H251.427z"/>
			<path fill="#6D6E70" d="M259.924,43.368v9.395h-0.964l0.048-0.853l-0.029-0.008c-0.301,0.637-1.005,0.956-2.111,0.956
				c-1.008,0-1.698-0.245-2.068-0.738c-0.37-0.489-0.555-1.404-0.555-2.745c0-1.234,0.185-2.09,0.559-2.569
				c0.37-0.477,1.037-0.719,1.997-0.719c1.198,0,1.908,0.311,2.139,0.932l0.021-0.018v-3.633H259.924z M257.028,46.886
				c-0.713,0-1.187,0.164-1.42,0.491c-0.233,0.326-0.35,0.992-0.35,1.995c0,1.098,0.112,1.819,0.346,2.168
				c0.23,0.346,0.713,0.522,1.442,0.522c0.793,0,1.308-0.177,1.548-0.522c0.239-0.35,0.355-1.1,0.355-2.259
				c0-0.941-0.131-1.578-0.393-1.904C258.293,47.05,257.781,46.886,257.028,46.886z"/>
			<path fill="#6D6E70" d="M267.613,46.184v7.006c0,0.951-0.207,1.609-0.619,1.966c-0.41,0.359-1.168,0.538-2.269,0.538
				c-0.982,0-1.652-0.151-2.011-0.451c-0.354-0.307-0.535-0.872-0.535-1.705h0.93c0,0.564,0.104,0.936,0.313,1.104
				c0.21,0.171,0.664,0.253,1.372,0.253c0.735,0,1.229-0.111,1.484-0.331c0.249-0.223,0.376-0.653,0.376-1.293v-1.32l-0.019-0.008
				c-0.251,0.61-0.967,0.915-2.151,0.915c-0.971,0-1.641-0.24-2.007-0.72c-0.37-0.477-0.552-1.354-0.552-2.622
				c0-1.317,0.188-2.221,0.562-2.707c0.373-0.481,1.068-0.724,2.084-0.724c1.077,0,1.777,0.33,2.111,0.99l0.019-0.005l-0.047-0.889
				h0.959V46.184z M264.741,46.886c-0.754,0-1.242,0.16-1.469,0.479c-0.226,0.32-0.337,1.017-0.337,2.096
				c0,1.088,0.111,1.791,0.337,2.116c0.227,0.321,0.716,0.486,1.469,0.486c0.769,0,1.275-0.181,1.517-0.534
				c0.247-0.354,0.367-1.093,0.367-2.22c0-0.99-0.12-1.644-0.367-1.955C266.017,47.041,265.51,46.886,264.741,46.886z"/>
			<path fill="#6D6E70" d="M274.369,50.774h0.982l0.008,0.24c0,0.683-0.205,1.158-0.621,1.433c-0.414,0.277-1.143,0.411-2.188,0.411
				c-1.21,0-2.006-0.221-2.382-0.666c-0.379-0.442-0.569-1.372-0.569-2.788c0-1.311,0.19-2.192,0.571-2.644
				c0.381-0.447,1.124-0.674,2.235-0.674c1.209,0,2.007,0.197,2.382,0.584c0.375,0.39,0.563,1.211,0.563,2.465v0.517h-4.735
				c0,1.035,0.11,1.699,0.337,1.981c0.22,0.285,0.74,0.429,1.556,0.429c0.778,0,1.279-0.071,1.514-0.206
				c0.23-0.133,0.347-0.424,0.347-0.877V50.774L274.369,50.774z M274.369,48.905l-0.008-0.313c0-0.711-0.116-1.174-0.35-1.386
				c-0.238-0.216-0.741-0.319-1.516-0.319c-0.779,0-1.285,0.123-1.518,0.372c-0.231,0.252-0.349,0.802-0.349,1.646H274.369z"/>
		</g>
	</g>
	<g>
		<path fill="#58595B" d="M276.25,7.535V6.643h4.557v0.892h-1.749v4.45h-1.059v-4.45H276.25z M283.241,6.643l1.365,3.827
			l1.371-3.827h1.522v5.342h-0.98v-4.31l-1.48,4.31h-0.854l-1.493-4.31v4.31h-0.979V6.643H283.241z"/>
	</g>
</g>
</svg>
